<svg width="42" height="42" viewBox="0 0 42 42" fill="none" xmlns="http://www.w3.org/2000/svg">
<g clip-path="url(#clip0)">
<path d="M38.4057 28.9322C37.3661 27.8177 35.6137 27.7568 34.4992 28.7962L34.1699 29.1033L31.0362 27.056L31.2539 22.3188C31.4148 18.8162 31.2435 17.6982 30.0322 14.3437C29.0947 11.7475 27.8158 8.50358 26.7883 5.89697C26.0529 4.0314 25.4178 2.42022 25.214 1.81512C25.2131 1.8125 25.2123 1.80995 25.2113 1.80725C24.6754 0.267517 23.2678 -0.222647 22.1544 0.0891712C21.7309 0.207713 21.3218 0.453738 21 0.815516C20.6782 0.453738 20.2691 0.207713 19.8456 0.0891712C18.732 -0.222483 17.3245 0.267435 16.7886 1.80716C16.7877 1.80979 16.7868 1.81233 16.7859 1.81504C16.6227 2.29954 16.177 3.4432 15.7197 4.60672C15.554 5.02846 15.7614 5.5046 16.1831 5.67031C16.6051 5.83635 17.081 5.62847 17.2467 5.20697C17.7826 3.84329 18.1737 2.83401 18.3394 2.34286C18.5538 1.73177 19.0277 1.56409 19.4032 1.66918C19.7946 1.77878 20.1466 2.20561 19.9625 3.07511L18.0465 11.3146C17.6361 11.6135 17.2368 12.1082 16.9068 12.8995C15.9568 15.1779 15.1579 17.608 14.7151 19.5662C14.6151 20.0082 14.8924 20.4473 15.3343 20.5473C15.7761 20.6472 16.2154 20.37 16.3153 19.9281C16.7382 18.0578 17.5058 15.7262 18.4211 13.531C18.8501 12.5023 19.2201 12.5359 19.3594 12.5483C19.8047 12.5883 20.1345 12.986 20.0946 13.4347C20.057 13.8571 19.8927 15.3965 19.7338 16.8852C19.5669 18.4491 19.4092 19.9263 19.3704 20.363C19.2749 21.4367 19.4635 22.7395 19.6633 24.1188C20.2423 28.117 20.9582 33.0639 15.6204 36.3695L9.06551 30.256L12.2531 28.1734C12.4962 28.0145 12.6372 27.739 12.6239 27.4489L12.3848 22.2436C12.2335 18.951 12.3703 18.0589 13.5107 14.9011C13.8067 14.0813 14.151 13.1574 14.5632 12.0766C14.7247 11.6533 14.5124 11.1792 14.089 11.0177C13.6657 10.8563 13.1917 11.0687 13.0302 11.4919C12.6145 12.5819 12.267 13.5147 11.9675 14.3438C10.7562 17.6983 10.585 18.8163 10.7458 22.3189L10.9634 27.0561L7.82972 29.1035L7.50051 28.7964C6.38598 27.7568 4.63361 27.8178 3.59397 28.9324C2.55458 30.047 2.61561 31.7994 3.73015 32.8389L12.7579 41.2587C13.2897 41.7548 13.9666 42.0002 14.6421 42.0002C15.3823 42.0002 16.1208 41.7054 16.6643 41.1227C17.1679 40.5828 17.431 39.8791 17.4053 39.1413C17.3848 38.5537 17.1826 38.0008 16.8286 37.5455C18.8656 36.2088 20.2427 34.5574 20.9997 32.5406C21.7568 34.5575 23.1338 36.2088 25.1708 37.5455C24.8169 38.0008 24.6146 38.5537 24.5941 39.1413C24.5685 39.8791 24.8316 40.5828 25.3352 41.1228C25.8787 41.7056 26.6171 42.0002 27.3573 42.0002C28.0328 42.0002 28.7099 41.7547 29.2416 41.2587L38.2693 32.8389V32.8388C39.3841 31.7992 39.4451 30.0468 38.4057 28.9322ZM15.4647 40.0034C15.0422 40.4565 14.33 40.4811 13.8772 40.0587L4.84945 31.6388C4.39653 31.2165 4.37175 30.5042 4.79415 30.0513C5.015 29.8144 5.31508 29.6947 5.61599 29.6947C5.89048 29.6947 6.16563 29.7945 6.38171 29.996L15.4094 38.4159C15.6289 38.6205 15.7554 38.8984 15.7659 39.1982C15.7763 39.4981 15.6694 39.784 15.4647 40.0034ZM19.8132 10.9612L21 5.85768L22.1868 10.9612C21.7274 11.062 21.3204 11.2912 21 11.6058C20.6796 11.2912 20.2726 11.062 19.8132 10.9612ZM21 20.5764C21.0202 20.8502 21.0184 21.149 21 21.4706C20.9817 21.149 20.9797 20.8502 21 20.5764ZM22.3366 24.1187C22.5364 22.7394 22.725 21.4366 22.6295 20.3629C22.5906 19.9262 22.4329 18.449 22.266 16.885C22.1071 15.3964 21.9429 13.8571 21.9053 13.4346C21.8654 12.9858 22.1952 12.5882 22.6405 12.5481C22.78 12.5358 23.1499 12.5022 23.5788 13.5308C24.4941 15.7261 25.2617 18.0577 25.6846 19.928C25.7845 20.3699 26.2237 20.647 26.6656 20.5472C27.1075 20.4472 27.3847 20.008 27.2848 19.566C26.842 17.6078 26.0431 15.1778 25.093 12.8993C24.763 12.1079 24.3638 11.6132 23.9534 11.3144L22.0374 3.07511C21.8534 2.20561 22.2053 1.77878 22.5966 1.66918C22.9722 1.56409 23.4462 1.73194 23.6606 2.3431C23.8789 2.99028 24.4895 4.53904 25.262 6.49862C26.2856 9.0953 27.5596 12.3269 28.489 14.9009C29.6294 18.0588 29.7662 18.9508 29.6149 22.2434L29.3758 27.4487C29.3625 27.7388 29.5035 28.0144 29.7466 28.1732L32.9341 30.2558L26.3793 36.3693C21.0417 33.0638 21.7576 28.1168 22.3366 24.1187ZM37.1505 31.6388L28.1228 40.0588C27.6699 40.4811 26.9577 40.4563 26.5353 40.0035C26.3306 39.784 26.2237 39.4981 26.2341 39.1982C26.2445 38.8984 26.3711 38.6206 26.5906 38.416L35.6183 29.996C35.8343 29.7945 36.1095 29.6947 36.384 29.6947C36.6848 29.6947 36.9849 29.8146 37.2057 30.0513C37.6282 30.5042 37.6034 31.2165 37.1505 31.6388Z" fill="#4E7D96"/>
<path d="M14.8077 9.09619C14.913 9.1414 15.0226 9.16281 15.1304 9.16281C15.4487 9.16281 15.7515 8.97642 15.8848 8.66542L15.8851 8.66485C16.0635 8.24844 15.8706 7.7664 15.4541 7.58797C15.0376 7.40921 14.5552 7.60265 14.3768 8.01907C14.1983 8.43548 14.3912 8.91768 14.8077 9.09619Z" fill="#FAC915"/>
</g>
<defs>
<clipPath id="clip0">
<rect width="42" height="42" fill="white"/>
</clipPath>
</defs>
</svg>
