<svg width="42" height="42" viewBox="0 0 42 42" fill="none" xmlns="http://www.w3.org/2000/svg">
<g clip-path="url(#clip0)">
<path d="M20.5825 3.46804C20.4482 3.88123 20.5581 4.32625 20.8692 4.62952L21.8302 5.56624L21.6034 6.88891C21.5299 7.31711 21.7026 7.74179 22.0541 7.99715C22.2527 8.14145 22.485 8.21478 22.719 8.21478C22.899 8.21478 23.08 8.17131 23.2473 8.08337L24.4351 7.45886L25.6229 8.08329C26.0074 8.28541 26.4646 8.25252 26.8161 7.99707C27.1676 7.74171 27.3405 7.31703 27.2669 6.88883L27.0401 5.56616L28.0011 4.62944C28.3121 4.32617 28.4221 3.88107 28.2878 3.46796C28.1535 3.05477 27.8031 2.75921 27.373 2.69678L26.0451 2.50377L25.4512 1.30045C25.2589 0.9108 24.8696 0.668808 24.4351 0.668808C24.0006 0.668808 23.6113 0.910882 23.419 1.30045L22.8251 2.50385L21.4971 2.69687C21.0672 2.75937 20.7168 3.05485 20.5825 3.46804ZM23.0528 3.71422C23.422 3.66057 23.7409 3.42883 23.9059 3.09439L24.4352 2.022L24.9644 3.09431C25.1295 3.42883 25.4483 3.66057 25.8176 3.71422L27.001 3.88624L26.1445 4.72107C25.8776 4.98136 25.7559 5.35616 25.8188 5.7239L26.0209 6.90253L24.9626 6.34611C24.6325 6.17245 24.2381 6.17237 23.908 6.34603L22.8495 6.90253L23.0516 5.72398C23.1148 5.3564 22.993 4.98144 22.7258 4.72099L21.8695 3.88624L23.0528 3.71422Z" fill="#FAC915"/>
<path d="M29.7721 21.2272C26.4057 19.4554 23.4781 17.9124 23.1985 15.1878C24.62 14.8725 25.929 14.1613 26.9922 13.1084C27.9592 12.1507 28.6614 10.9545 29.0227 9.64876C29.1662 9.12901 28.9488 8.59809 28.4816 8.32772C28.0177 8.05914 27.4529 8.13445 27.0787 8.51229L27.0627 8.52804C27.0477 8.5428 27.0329 8.55749 27.0184 8.5725C26.1481 9.42235 25.005 9.88944 23.7961 9.88944C23.7881 9.88944 23.78 9.88944 23.7718 9.88944C22.5513 9.88312 21.4009 9.40152 20.5328 8.53337C18.7341 6.734 18.7341 3.80678 20.5327 2.00823C20.5329 2.00806 20.5386 2.00224 20.5389 2.00207L20.5473 1.99354C20.9298 1.61415 21.0057 1.04698 20.7362 0.582102C20.466 0.116325 19.9345 -0.0998293 19.4145 0.0441367C18.1238 0.40114 16.9379 1.09341 15.9851 2.04612C15.8405 2.19075 15.6978 2.34546 15.5609 2.506C15.3404 2.76448 15.3711 3.15282 15.6297 3.37332C15.8882 3.59398 16.2767 3.56289 16.497 3.30449C16.6129 3.16857 16.7335 3.03789 16.8552 2.91616C17.5992 2.17213 18.5113 1.61685 19.5064 1.30021C17.3855 3.58898 17.4375 7.1773 19.6625 9.40324C20.7614 10.5021 22.2186 11.1118 23.7655 11.1198C25.2566 11.1315 26.6712 10.5747 27.7656 9.55992C27.4451 10.5657 26.8818 11.4859 26.1264 12.234C24.8833 13.4651 23.2423 14.1423 21.5032 14.1423C21.4951 14.1423 21.487 14.1423 21.4789 14.1423C19.7309 14.1359 18.0851 13.4465 16.8447 12.2009C15.0277 10.3759 14.4436 7.63988 15.3566 5.2306C15.477 4.91289 15.3171 4.5577 14.9993 4.43727C14.6815 4.31693 14.3264 4.47681 14.2059 4.79452C13.1221 7.65448 13.8156 10.9025 15.9728 13.0691C16.7932 13.8928 17.7634 14.5113 18.8209 14.899C18.7252 17.8052 15.7115 19.3937 12.2281 21.2271C7.87857 23.5165 2.94886 26.1112 2.94886 32.107C2.94886 38.5606 7.11034 41.7452 7.28753 41.8775C7.39392 41.957 7.52312 42 7.65585 42H34.3441C34.4768 42 34.606 41.9571 34.7123 41.8776C34.7395 41.8573 35.3853 41.3705 36.1679 40.4144C36.3832 40.1515 36.3444 39.7638 36.0815 39.5486C35.8186 39.3334 35.4309 39.3721 35.2157 39.635C34.7456 40.2093 34.3346 40.589 34.1244 40.7696H7.8752C7.16686 40.1608 4.17934 37.2842 4.17934 32.107C4.17934 26.854 8.56238 24.5471 12.8011 22.3162C16.3215 20.4633 19.6577 18.7073 20.0228 15.3725H21.4541C21.4608 15.3725 21.4676 15.3729 21.4743 15.3729H21.5033C21.5132 15.3729 21.523 15.3725 21.5329 15.3725H21.9771C22.3423 18.7073 25.6785 20.4633 29.1989 22.3162C33.4376 24.5471 37.8206 26.854 37.8206 32.107C37.8206 34.1242 37.3721 36.0072 36.4876 37.7034C36.3305 38.0047 36.4474 38.3763 36.7487 38.5334C37.0498 38.6903 37.4215 38.5736 37.5787 38.2723C38.5557 36.3986 39.0511 34.3243 39.0511 32.107C39.0511 26.1112 34.1214 23.5165 29.7721 21.2272Z" fill="#4E7D96"/>
</g>
<defs>
<clipPath id="clip0">
<rect width="42" height="42" fill="white"/>
</clipPath>
</defs>
</svg>
