<svg width="42" height="42" viewBox="0 0 42 42" fill="none" xmlns="http://www.w3.org/2000/svg">
<g clip-path="url(#clip0)">
<path d="M41.9605 39.4062L40.8587 33.633C40.858 33.6294 40.8573 33.6259 40.8566 33.6223C40.6669 32.7154 39.8564 32.0573 38.9295 32.0573H37.9075V23.468C37.9075 20.737 36.9906 18.0956 35.3258 16.0305C34.1405 14.5598 32.8212 13.6473 31.3906 13.3041C31.9544 12.6591 32.3848 11.8805 32.6242 10.9997C32.8913 10.0753 33.2638 8.99086 33.2751 8.02274C33.2915 6.61882 32.4667 5.31092 31.1639 4.73322C31.001 4.661 28.2164 3.8897 28.2164 3.8897C26.3422 3.37986 24.3616 4.52487 23.8541 6.39227L22.7912 10.4546C22.1103 12.9571 24.0394 15.0621 26.4558 15.2843V21.0636L26.3728 21.2853L21.472 19.4525C20.9452 19.2553 20.3307 19.4347 19.9939 19.8845C19.4944 19.7187 18.9136 19.6107 18.4829 19.302C18.0807 19.0138 17.7329 18.5833 17.3749 18.2401C17.1172 17.9932 16.7493 17.9168 16.4145 18.0408C16.0799 18.1648 15.8504 18.4624 15.8158 18.8177C15.7136 19.8646 15.5938 20.895 16.4476 21.6973L18.8283 23.9343C18.8871 23.9899 18.9592 24.0342 19.0349 24.0627L26.4508 26.8363C26.4144 27.1415 26.1545 27.3791 25.8395 27.3791H18.857C16.9335 27.3791 15.3686 28.944 15.3686 30.8674V34.2808C15.3686 36.204 16.9334 37.7685 18.857 37.7685H30.8043L31.6727 38.7798C31.8829 39.0247 32.1885 39.1651 32.5111 39.1651H33.8646C34.7031 39.1651 35.1876 38.2661 34.8474 37.5387C36.6349 36.9389 37.9073 35.2312 37.9073 33.2952V33.2927H38.9293C39.2732 33.2927 39.5741 33.5356 39.6464 33.871L40.7478 39.6425C40.8317 40.0934 40.5081 40.5379 40.0311 40.5379H1.96841C1.49588 40.5379 1.16268 40.0931 1.25171 39.6425L2.35315 33.871C2.42546 33.5356 2.72629 33.2927 3.07018 33.2927H13.0477C13.3888 33.2927 13.6653 33.0162 13.6653 32.6751C13.6653 32.3339 13.3888 32.0574 13.0477 32.0574H3.07043C2.14357 32.0574 1.33307 32.7156 1.14341 33.6224C1.14267 33.626 1.14193 33.6296 1.14127 33.6331L0.0394963 39.4059C-0.208298 40.6098 0.742858 41.773 1.96865 41.773H40.0314C41.2572 41.7731 42.2082 40.6106 41.9605 39.4062ZM26.1329 5.3068C26.67 4.99913 27.2949 4.91917 27.8923 5.08173L30.3296 5.74408C31.5629 6.0795 32.2937 7.35553 31.9585 8.58874C31.9225 8.72083 31.8913 8.8544 31.8578 8.98715L24.9837 6.95506C25.148 6.26685 25.5039 5.66684 26.1329 5.3068ZM25.777 13.911C24.4303 13.5455 23.618 12.1206 23.9847 10.773L24.6707 8.15063L31.5555 10.1859L31.4306 10.681C31.1071 11.8657 30.3422 12.854 29.2761 13.4644C28.211 14.074 26.9727 14.2337 25.7885 13.9144C25.7847 13.9132 25.7808 13.9121 25.777 13.911ZM16.9524 19.8895L16.983 19.5755C17.7713 20.3311 18.4829 20.6845 19.5113 21.0258L18.998 22.3985L17.2936 20.7971C17.0471 20.5654 16.9196 20.2262 16.9524 19.8895ZM16.6041 34.2807V30.8674C16.6041 29.6249 17.6148 28.6142 18.8572 28.6142H22.3201V32.057H21C20.6589 32.057 20.3824 32.3335 20.3824 32.6746C20.3824 33.0158 20.6589 33.2923 21 33.2923H29.0779C29.1123 33.2923 29.1403 33.3203 29.1403 33.3547V36.5328L18.8572 36.5332C17.6148 36.5331 16.6041 35.5227 16.6041 34.2807ZM32.5713 37.9297L31.5567 36.7481C31.2745 36.4193 30.7481 36.5329 30.3754 36.5329V34.493H31.6549C32.0704 34.493 32.436 34.7433 32.5866 35.1305L33.6743 37.9296H32.5713V37.9297ZM36.6722 33.295C36.6722 34.7176 35.7236 35.9698 34.3996 36.3858L33.7379 34.6831C33.4014 33.8173 32.5838 33.2578 31.6549 33.2578H30.3705C30.3207 32.5874 29.7606 32.0569 29.0778 32.0569H23.5553V28.6142H25.8396C26.7444 28.6142 27.4992 27.9615 27.6592 27.1024C27.6699 27.1025 27.6806 27.1032 27.6912 27.1032C28.104 27.1032 28.5158 27.0146 28.9027 26.8383C29.6139 26.5143 30.1563 25.9328 30.43 25.2008L31.2494 23.0097C31.3689 22.6902 31.2068 22.3343 30.8873 22.2149C30.5682 22.0952 30.2121 22.2575 30.0926 22.577L29.2731 24.7681C29.1149 25.1911 28.8015 25.5271 28.3906 25.7142C27.9798 25.9013 27.5207 25.9172 27.0976 25.7592L20.0462 23.122L20.975 20.6387C20.9883 20.6113 21.0097 20.6015 21.0392 20.6095L26.5186 22.6587C26.838 22.7783 27.194 22.6161 27.3134 22.2966L28.9158 18.0122C29.3275 16.9113 30.928 16.885 31.4107 17.9444C31.5574 18.2666 31.57 18.6266 31.446 18.9583L31.1122 19.8508C30.9927 20.1703 31.1549 20.5261 31.4743 20.6455C31.7937 20.7653 32.1497 20.6029 32.2691 20.2834L32.6029 19.3911C32.8425 18.7504 32.8183 18.0547 32.5348 17.4323C32.2512 16.8099 31.7421 16.3352 31.1017 16.0956C29.6718 15.5576 28.1738 16.339 27.691 17.7611V15.266C28.567 15.1586 29.4016 14.8534 30.1341 14.3852C31.6631 14.4064 33.086 15.2202 34.364 16.8059C35.8524 18.6523 36.6721 21.0183 36.6721 23.4683V33.295H36.6722Z" fill="#4E7D96"/>
<path d="M8.76411 15.4424C11.9655 15.4424 14.6476 12.7452 14.6708 9.55389C14.6719 9.17079 14.4121 8.83974 14.039 8.74891C13.6668 8.65824 13.2841 8.83233 13.1091 9.17261C12.5883 10.1851 11.5153 10.8143 10.3776 10.7763C8.83082 10.7243 7.57842 9.47179 7.52629 7.92507C7.488 6.78665 8.11749 5.71452 9.13 5.19356C9.92287 4.78576 9.55287 3.61053 8.69617 3.63218C5.52969 3.66858 2.91191 6.27401 2.86093 9.43992C2.83491 11.0545 3.44892 12.572 4.58981 13.7129C5.70748 14.8305 7.18651 15.4424 8.76411 15.4424ZM7.29019 5.10965C6.62685 5.89289 6.25611 6.9096 6.29168 7.96649C6.36547 10.1605 8.14195 11.937 10.3359 12.0108C11.3928 12.0453 12.4096 11.6758 13.1926 11.0125C12.1018 14.2326 7.88254 15.2585 5.46323 12.8394C4.56099 11.9371 4.07537 10.7369 4.09595 9.45985C4.1284 7.45048 5.46825 5.72679 7.29019 5.10965Z" fill="#FAC915"/>
<path d="M13.4269 3.35055C13.7728 3.35055 14.0532 3.07015 14.0532 2.72427C14.0532 2.37838 13.7728 2.09798 13.4269 2.09798C13.081 2.09798 12.8006 2.37838 12.8006 2.72427C12.8006 3.07015 13.081 3.35055 13.4269 3.35055Z" fill="#FAC915"/>
<path d="M16.3296 6.47634C16.6754 6.47634 16.9558 6.19594 16.9558 5.85006C16.9558 5.50417 16.6754 5.22378 16.3296 5.22378C15.9837 5.22378 15.7033 5.50417 15.7033 5.85006C15.7033 6.19594 15.9837 6.47634 16.3296 6.47634Z" fill="#FAC915"/>
<path d="M16.9558 1.47944C17.3017 1.47944 17.5821 1.19904 17.5821 0.853156C17.5821 0.507271 17.3017 0.226875 16.9558 0.226875C16.6099 0.226875 16.3295 0.507271 16.3295 0.853156C16.3295 1.19904 16.6099 1.47944 16.9558 1.47944Z" fill="#FAC915"/>
<path d="M6.30264 34.4617C5.72849 34.4617 5.24385 34.8728 5.15022 35.4392L4.73155 37.9733C4.67547 38.3123 4.77091 38.6572 4.99318 38.9192C5.21544 39.1813 5.54015 39.3317 5.88389 39.3317H12.2502C12.8943 39.3317 13.4182 38.8077 13.4182 38.1637V35.6296C13.4182 34.9856 12.8943 34.4616 12.2502 34.4616H6.30264V34.4617ZM12.183 38.0965H5.96319L6.35963 35.6969H12.1829V38.0965H12.183Z" fill="#FAC915"/>
<path d="M30.7795 28.0553C30.5382 27.8142 30.1472 27.8142 29.906 28.0553C29.6648 28.2966 29.6648 28.6876 29.906 28.9288L32.3306 31.3534C32.4512 31.474 32.6093 31.5342 32.7674 31.5342C32.9254 31.5342 33.0835 31.474 33.2042 31.3534C33.4454 31.1121 33.4454 30.7211 33.2042 30.4799L30.7795 28.0553Z" fill="#FAC915"/>
</g>
<defs>
<clipPath id="clip0">
<rect width="42" height="42" fill="white"/>
</clipPath>
</defs>
</svg>
