<svg width="42" height="42" viewBox="0 0 42 42" fill="none" xmlns="http://www.w3.org/2000/svg">
<g clip-path="url(#clip0)">
<path d="M32.7508 0H11.1927C8.90059 0 6.9764 1.91828 6.9764 4.2155C6.97632 4.2155 6.97649 34.3723 6.9764 34.3723C6.9769 36.6968 8.86802 38.5876 11.1926 38.5876H12.3666V41.3895C12.3666 41.8389 12.8585 42.116 13.2295 41.9528L16.151 40.6685C16.3745 40.5703 16.5186 40.3493 16.5186 40.1052V38.5876H32.7508C34.004 38.5876 35.0236 37.568 35.0236 36.3148V2.27277C35.0237 1.0196 34.0041 0 32.7508 0V0ZM33.793 2.27277V30.1482H11.8088V7.66293C11.8088 7.32312 11.5334 7.04762 11.1935 7.04762C10.8536 7.04762 10.5782 7.32312 10.5782 7.66293V30.1929C9.6584 30.3278 8.83421 30.7609 8.2071 31.3911V4.21632C8.2071 2.81194 9.20668 1.58257 10.5782 1.29436V4.56696C10.5782 4.90677 10.8536 5.18226 11.1935 5.18226C11.5334 5.18226 11.8088 4.90677 11.8088 4.56696V1.23061H32.7509C33.3255 1.23061 33.793 1.69816 33.793 2.27277ZM15.288 39.7035L13.5972 40.4469V34.9832H15.288V39.7035ZM32.7508 37.357H16.5186V34.9832H25.8079C26.6226 34.955 26.622 33.7805 25.8079 33.7526H11.1935C10.3788 33.7808 10.3795 34.9553 11.1935 34.9832H12.3666V37.357H11.1926C7.23434 37.1943 7.23007 31.5419 11.1926 31.3788H33.793V33.722H29.0372C28.2225 33.7502 28.2231 34.9247 29.0372 34.9526H33.793V36.3148C33.793 36.8894 33.3255 37.357 32.7508 37.357Z" fill="#4E7D96"/>
<path d="M16.8175 22.7506C17.0696 24.3794 18.3702 25.6667 20.0059 25.8991C20.1692 26.759 20.7713 27.4895 21.6313 27.8304C21.9779 27.9678 22.1458 28.2044 22.1756 28.5978C22.232 29.3435 23.4045 29.3303 23.4045 28.5514C23.4045 28.1812 23.5548 27.9656 23.9071 27.8304C24.7473 27.5078 25.3611 26.7696 25.5532 25.9019C27.1979 25.6768 28.5077 24.3859 28.7607 22.7507C30.5855 22.4912 31.9932 20.9191 31.9932 19.0244V12.5589C31.9932 10.6643 30.5855 9.09216 28.7607 8.83267C28.5077 7.1976 27.1979 5.9066 25.5532 5.68148C25.3611 4.81374 24.7473 4.07554 23.907 3.75295C23.5548 3.61775 23.4045 3.40215 23.4045 3.03198C23.4045 2.25793 22.2191 2.22404 22.1748 2.99695C22.1523 3.39362 21.9927 3.62079 21.6415 3.75656C20.8152 4.07595 20.2118 4.81128 20.0235 5.68173C18.3796 5.90734 17.0706 7.19809 16.8176 8.83267C14.9928 9.09216 13.585 10.6643 13.585 12.5589V19.0244C13.5849 20.919 14.9927 22.4911 16.8175 22.7506ZM14.8156 12.5589C14.8156 11.1621 15.9526 10.0257 17.3503 10.0257C17.6753 9.9924 18.0039 9.79017 18.0039 9.4104C18.0039 8.01357 19.1409 6.87723 20.5385 6.87723C20.8656 6.84105 21.1922 6.63529 21.1922 6.25388C21.1922 5.65318 21.5511 5.11081 22.0853 4.90439C22.3529 4.80094 22.5832 4.65918 22.7734 4.48344C22.9626 4.65663 23.1944 4.7975 23.466 4.90177C24.0165 5.11311 24.3863 5.65974 24.3863 6.26192C24.3863 6.64169 24.7149 6.84392 25.04 6.87723C26.4375 6.87723 27.5746 8.01366 27.5746 9.4104C27.5746 9.79017 27.9032 9.9924 28.2282 10.0257C29.6258 10.0257 30.7629 11.1621 30.7629 12.5589V19.0244C30.7629 20.4212 29.6259 21.5576 28.2282 21.5576C27.9032 21.5909 27.5746 21.7931 27.5746 22.1729C27.5746 23.5696 26.4376 24.7061 25.04 24.7061C24.7149 24.7394 24.3863 24.9416 24.3863 25.3214C24.3863 25.9236 24.0165 26.4702 23.4661 26.6815C23.1902 26.7874 22.9552 26.9311 22.7645 27.1081C22.5758 26.9328 22.3482 26.7907 22.0849 26.6864C21.5426 26.4714 21.1922 25.9764 21.1922 25.4251C21.1974 24.9948 20.9728 24.7418 20.5385 24.7061C19.141 24.7061 18.0039 23.5696 18.0039 22.1729C18.0051 21.8182 17.703 21.5382 17.3503 21.5576C15.9526 21.5576 14.8156 20.4212 14.8156 19.0244V12.5589H14.8156Z" fill="#FAC915"/>
<path d="M22.872 21.3092C25.9157 21.3092 28.3918 18.834 28.3918 15.7916C28.3918 14.9961 27.1612 14.9961 27.1612 15.7916C27.1612 18.1554 25.2371 20.0786 22.872 20.0786C17.1818 19.843 17.1835 11.7393 22.872 11.5047C23.6676 11.5047 23.6676 10.274 22.872 10.274C15.5492 10.5772 15.5515 21.0072 22.872 21.3092Z" fill="#FAC915"/>
<path d="M24.972 13.1687H25.4412V13.6374C25.4695 14.4521 26.644 14.4515 26.6718 13.6374V13.1687H27.141C27.9558 13.1405 27.9551 11.966 27.141 11.9381H26.6718V11.4693C26.6436 10.6545 25.4691 10.6552 25.4412 11.4693V11.938H24.972C24.1572 11.9663 24.1579 13.1407 24.972 13.1687Z" fill="#FAC915"/>
</g>
<defs>
<clipPath id="clip0">
<rect width="42" height="42" fill="white"/>
</clipPath>
</defs>
</svg>
